# File created by Blade
# Date/Time:  Mon Sep 22 21:09:19 2014
# Frame Rate: 120.000 fps
#------------------------------------------------------
:FULLY-SPECIFIED
:DEGREES
2596
root 6.754851 33.021805 -8.618659 39.341948 -24.512173 -31.542709
Spine -31.382025 -8.537026 21.771384
Head 6.300201 -5.628927 8.339265
LeftShoulder 1.518623 36.559899 34.618230
LeftArm 94.544419 28.399794 -37.300996
LeftForeArm -36.038815 -0.000000 74.831440
LeftHand -21.579715 -0.000000 -4.810402
LeftHandThumb1 -26.253704 0.000000 33.147579
RightShoulder -10.847110 -50.068026 -13.274607
RightArm 63.725006 -13.173129 47.368520
RightForeArm 68.091598 0.000000 83.059550
RightHand 3.150314 -0.000000 23.100023
RightHandThumb1 -24.326973 -0.000000 -32.862282
LeftUpLeg -37.124482 20.016755 17.716019
LeftLeg 32.739513 -0.000000 -0.000000
LeftFoot -19.405351 18.408543 -0.397480
LeftToeBase 0.271940 -0.000000 -0.000000
RightUpLeg -162.005779 -11.862086 21.181203
RightLeg 103.380581 -0.000000 -0.000000
RightFoot 39.319884 -15.593525 5.632548
RightToeBase 44.561570 -0.000000 -0.000000
2597
root 6.778605 33.006363 -8.587285 39.359405 -24.643896 -31.421662
Spine -31.444246 -8.631735 21.793634
Head 6.302384 -5.426751 8.120996
LeftShoulder 1.384383 36.616912 34.448707
LeftArm 94.605804 28.326269 -37.164295
LeftForeArm -36.087021 -0.000000 74.771703
LeftHand -21.631764 -0.000000 -4.708059
LeftHandThumb1 -26.253704 0.000000 33.147579
RightShoulder -10.970897 -49.961313 -13.158251
RightArm 63.720847 -13.330969 47.604235
RightForeArm 67.896099 -0.000000 82.993893
RightHand 3.022744 -0.000000 22.996532
RightHandThumb1 -24.326973 -0.000000 -32.862282
LeftUpLeg -37.205400 19.814553 17.529252
LeftLeg 32.872806 -0.000000 -0.000000
LeftFoot -19.348796 18.687533 -0.325260
LeftToeBase 0.183670 -0.000000 -0.000000
RightUpLeg -162.014581 -11.851754 21.142343
RightLeg 103.524734 -0.000000 -0.000000
RightFoot 39.324544 -15.581165 5.629247
RightToeBase 44.597265 -0.000000 -0.000000
2598
root 6.801840 32.995856 -8.556966 39.387289 -24.751617 -31.336850
Spine -31.509552 -8.706008 21.858237
Head 6.358243 -5.203759 7.893715
LeftShoulder 1.282715 36.604440 34.306513
LeftArm 94.660044 28.266277 -37.038196
LeftForeArm -36.121000 -0.000000 74.676345
LeftHand -21.651603 -0.000000 -4.746496
LeftHandThumb1 -26.253704 0.000000 33.147579
RightShoulder -11.093977 -49.921709 -13.018257
RightArm 63.726225 -13.420751 47.751120
RightForeArm 67.687891 0.000000 82.957268
RightHand 3.051941 -0.000000 22.952839
RightHandThumb1 -24.326973 -0.000000 -32.862282
LeftUpLeg -37.317099 19.682606 17.342482
LeftLeg 33.013380 -0.000000 -0.000000
LeftFoot -18.972426 19.183152 0.150381
LeftToeBase -0.504497 -0.000000 0.000000
RightUpLeg -162.034351 -11.788459 21.171491
RightLeg 103.712776 -0.000000 -0.000000
RightFoot 39.288134 -15.679209 5.691626
RightToeBase 44.658580 -0.000000 -0.000000
2599
root 6.830441 32.991070 -8.534489 39.589471 -24.863359 -31.353247
Spine -31.663592 -8.680009 22.030871
Head 6.393105 -4.948134 7.645117
LeftShoulder 1.158481 36.613705 34.156858
LeftArm 94.763414 28.147405 -36.852429
LeftForeArm -36.222224 -0.000000 74.622788
LeftHand -21.712766 -0.000000 -4.726465
LeftHandThumb1 -26.253704 0.000000 33.147579
RightShoulder -11.218859 -49.871362 -12.888350
RightArm 63.708193 -13.495798 47.885030
RightForeArm 67.636311 -0.000000 82.969297
RightHand 3.014539 -0.000000 22.736951
RightHandThumb1 -24.326973 -0.000000 -32.862282
LeftUpLeg -37.621600 19.684403 17.161220
LeftLeg 33.267026 -0.000000 -0.000000
LeftFoot -18.743813 19.501954 0.379507
LeftToeBase -0.823625 -0.000000 0.000000
RightUpLeg -162.115034 -11.594609 21.306831
RightLeg 103.893248 -0.000000 -0.000000
RightFoot 39.202731 -15.720685 5.854708
RightToeBase 44.653724 -0.000000 -0.000000
2600
root 6.862282 32.989557 -8.515140 39.791634 -24.923415 -31.424685
Spine -31.767940 -8.642945 22.276117
Head 6.396185 -4.777520 7.408827
LeftShoulder 1.034965 36.543938 34.040759
LeftArm 94.884271 28.067646 -36.658487
LeftForeArm -36.393664 -0.000000 74.560981
LeftHand -21.707202 -0.000000 -4.666053
LeftHandThumb1 -26.253704 0.000000 33.147579
RightShoulder -11.359349 -49.772852 -12.740186
RightArm 63.656177 -13.532486 47.948290
RightForeArm 67.681340 0.000000 83.014795
RightHand 3.052375 -0.000000 22.684218
RightHandThumb1 -24.326973 -0.000000 -32.862282
LeftUpLeg -37.966191 19.819283 16.984692
LeftLeg 33.540352 -0.000000 -0.000000
LeftFoot -18.189979 19.913507 1.026786
LeftToeBase -1.813165 -0.000000 0.000000
RightUpLeg -162.184272 -11.409574 21.531521
RightLeg 104.081637 -0.000000 -0.000000
RightFoot 39.226628 -15.806058 6.097758
RightToeBase 44.494504 -0.000000 -0.000000
